<?xml version="1.0"?>
<svg xmlns="http://www.w3.org/2000/svg" id="Layer_1" data-name="Layer 1" viewBox="0 0 512 512" width="512" height="512"><title>Global mobile reach ads</title><path d="M411.527,238.325a6,6,0,0,0,1.124,8.41L416.922,250H374.653a6,6,0,0,0,0,12h42.269l-4.271,3.265a6,6,0,1,0,7.287,9.534L438.3,260.767a6,6,0,0,0,0-9.534L419.938,237.2A6,6,0,0,0,411.527,238.325Z"/><path d="M374.653,208.877a5.984,5.984,0,0,0,4.243-1.757l29.889-29.889-.712,5.329a6,6,0,1,0,11.894,1.589l3.06-22.9a6,6,0,0,0-6.741-6.742l-22.9,3.06a6,6,0,1,0,1.589,11.9l5.328-.712-29.888,29.888a6,6,0,0,0,4.242,10.243Z"/><path d="M400.3,343.254l-5.328-.712a6,6,0,0,0-1.589,11.9l22.9,3.06a6.064,6.064,0,0,0,.8.052,6,6,0,0,0,5.946-6.794l-3.06-22.9a6,6,0,1,0-11.894,1.589l.712,5.329L378.9,304.88a6,6,0,0,0-8.485,8.486Z"/><path d="M215.25,368.82V431a46.053,46.053,0,0,0,46,46h160a46.053,46.053,0,0,0,46-46V81a46.053,46.053,0,0,0-46-46h-160a46.053,46.053,0,0,0-46,46v62.18a116.008,116.008,0,0,0,0,225.64Zm33-11.3V299.955a103.5,103.5,0,0,1,40.308,10.722C279.9,331.028,266.123,347.267,248.25,357.521Zm0-69.585V262H298.9a142.8,142.8,0,0,1-6.185,37.343A115.552,115.552,0,0,0,248.25,287.936Zm0-37.936V224.064a115.552,115.552,0,0,0,44.47-11.407A142.8,142.8,0,0,1,298.9,250Zm0-37.955V154.479c17.873,10.254,31.645,26.493,40.308,46.844A103.5,103.5,0,0,1,248.25,212.045Zm-12-57.566V212.05A104.959,104.959,0,0,1,195.864,201.5C204.523,181.067,218.324,164.763,236.25,154.479Zm0,69.588V250H185.6a142.886,142.886,0,0,1,6.129-37.17A117,117,0,0,0,236.25,224.067Zm0,37.933v25.933a117,117,0,0,0-44.526,11.237A142.886,142.886,0,0,1,185.6,262Zm0,37.95v57.571c-17.926-10.284-31.727-26.588-40.386-47.023A104.959,104.959,0,0,1,236.25,299.95ZM213.638,356a104.077,104.077,0,0,1-44.721-26.324,101.874,101.874,0,0,1,16.432-13.217A112.086,112.086,0,0,0,213.638,356Zm85.4-39.294A102.432,102.432,0,0,1,315.3,329.945,104.066,104.066,0,0,1,270.862,356,112.006,112.006,0,0,0,299.042,316.7Zm24.311,4.32a114.48,114.48,0,0,0-19.922-15.762A154.023,154.023,0,0,0,310.915,262h35.158A103.489,103.489,0,0,1,323.353,321.022ZM310.915,250a154.023,154.023,0,0,0-7.484-43.26,114.48,114.48,0,0,0,19.922-15.762A103.489,103.489,0,0,1,346.073,250Zm-11.873-54.7A112.006,112.006,0,0,0,270.862,156,104.066,104.066,0,0,1,315.3,182.055,102.432,102.432,0,0,1,299.042,195.3Zm-113.693.247a101.874,101.874,0,0,1-16.432-13.217A104.077,104.077,0,0,1,213.638,156,112.086,112.086,0,0,0,185.349,195.545Zm-4.36,11.44a154.126,154.126,0,0,0-7.4,43.015H138.427A103.476,103.476,0,0,1,160.9,191.284,113.931,113.931,0,0,0,180.989,206.985ZM173.585,262a154.126,154.126,0,0,0,7.4,43.015,113.931,113.931,0,0,0-20.088,15.7A103.476,103.476,0,0,1,138.427,262ZM421.25,465h-160a34.038,34.038,0,0,1-34-34V405h228v26A34.038,34.038,0,0,1,421.25,465Zm-194-358h163a6,6,0,0,0,0-12h-163V81a34.038,34.038,0,0,1,34-34h160a34.038,34.038,0,0,1,34,34V95h-14a6,6,0,0,0,0,12h14V393h-228V371.032a116,116,0,1,0,0-230.064Z"/><path d="M409.944,107H421.06a6,6,0,0,0,0-12H409.944a6,6,0,0,0,0,12Z"/><path d="M341.25,414a21,21,0,1,0,21,21A21.023,21.023,0,0,0,341.25,414Zm0,30a9,9,0,1,1,9-9A9.011,9.011,0,0,1,341.25,444Z"/><path d="M47.106,260.767,65.465,274.8a6,6,0,1,0,7.287-9.534L68.481,262H110.75a6,6,0,0,0,0-12H68.481l4.271-3.265a6,6,0,1,0-7.287-9.534L47.106,251.233a6,6,0,0,0,0,9.534Z"/><path d="M65.436,184.149a6,6,0,0,0,5.94,5.206,6.068,6.068,0,0,0,.8-.053,6,6,0,0,0,5.153-6.742l-.712-5.329,29.888,29.889a6,6,0,1,0,8.486-8.486L85.1,168.746l5.329.712a6,6,0,0,0,1.588-11.9l-22.9-3.06a6,6,0,0,0-6.742,6.742Z"/><path d="M114.993,304.88a6,6,0,0,0-8.486,0L76.619,334.769l.712-5.329a6,6,0,0,0-11.895-1.589l-3.06,22.9a6,6,0,0,0,5.947,6.794,6.076,6.076,0,0,0,.8-.052l22.9-3.06a6,6,0,0,0-1.588-11.9l-5.329.712,29.889-29.888A6,6,0,0,0,114.993,304.88Z"/></svg>
