<?xml version="1.0"?>
<svg xmlns="http://www.w3.org/2000/svg" viewBox="0 0 512 512" width="512" height="512"><g id="outline"><path d="M344,392H296V375.259A96.128,96.128,0,0,0,352,288h8a24,24,0,0,0,0-48h-8V186.6a44.509,44.509,0,0,0-49.983-44.151A24.036,24.036,0,0,0,280,128H232a72.081,72.081,0,0,0-72,72v40h-8a24,24,0,0,0,0,48h8a96.128,96.128,0,0,0,56,87.259V392H168a72.081,72.081,0,0,0-72,72v32h16V464a56.063,56.063,0,0,1,56-56h51.35a39.984,39.984,0,0,0,73.3,0H344a56.063,56.063,0,0,1,56,56v32h16V464A72.081,72.081,0,0,0,344,392ZM176,240a16.019,16.019,0,0,1,16-16H320a16.019,16.019,0,0,1,16,16v32a16.019,16.019,0,0,1-16,16H283.313l-13.656-13.657A8,8,0,0,0,264,272H248a8,8,0,0,0-5.657,2.343L228.687,288H192a16.019,16.019,0,0,1-16-16Zm0-34.234,5.706-1.9A230.678,230.678,0,0,1,254.8,192h1a238.656,238.656,0,0,1,75.62,12.241L336,205.766v6.539A31.793,31.793,0,0,0,320,208H192a31.8,31.8,0,0,0-16,4.305ZM360,256a8,8,0,0,1,0,16h-8V256ZM232,144h48a8.009,8.009,0,0,1,8,8,8,8,0,0,0,10.529,7.59A28.467,28.467,0,0,1,336,186.6v2.3A254.643,254.643,0,0,0,255.8,176h-1a246.62,246.62,0,0,0-77.614,12.506A56.1,56.1,0,0,1,232,144ZM152,272a8,8,0,0,1,0-16h8v16Zm24.933,28.221A31.792,31.792,0,0,0,192,304h40a8,8,0,0,0,5.657-2.343L251.313,288h9.374l13.656,13.657A8,8,0,0,0,280,304h40a31.794,31.794,0,0,0,15.067-3.779,80.007,80.007,0,0,1-158.134,0ZM256,416a24.028,24.028,0,0,1-24-24V380.962a96.318,96.318,0,0,0,48,0V392A24.028,24.028,0,0,1,256,416Z"/><path d="M55.99,144H152a40.045,40.045,0,0,0,40-40V56a40.045,40.045,0,0,0-40-40H56A40.045,40.045,0,0,0,16,56v48A40.046,40.046,0,0,0,55.99,144ZM152,128H73.08L96.537,99.852l9.806,9.8a8,8,0,0,0,11.8-.536l34.391-41.269L176,91.314V104A24.028,24.028,0,0,1,152,128ZM32,56A24.028,24.028,0,0,1,56,32h96a24.028,24.028,0,0,1,24,24V68.686L157.657,50.343a8,8,0,0,0-11.8.536L111.463,92.148l-9.806-9.8a8,8,0,0,0-11.8.536l-37.382,44.86A24.037,24.037,0,0,1,32,104Z"/><path d="M456,16H360a40.045,40.045,0,0,0-40,40v48a40.045,40.045,0,0,0,40,40h96a40.045,40.045,0,0,0,40-40V56A40.045,40.045,0,0,0,456,16Zm24,88a24.028,24.028,0,0,1-24,24H360a24.028,24.028,0,0,1-24-24V56a24.028,24.028,0,0,1,24-24h96a24.028,24.028,0,0,1,24,24Z"/><path d="M435.578,72.845l-48-24A8,8,0,0,0,376,56v48a8,8,0,0,0,11.578,7.155l48-24a8,8,0,0,0,0-14.31ZM392,91.056V68.944L414.111,80Z"/><path d="M64,88A24,24,0,1,0,40,64,24.028,24.028,0,0,0,64,88Zm0-32a8,8,0,1,1-8,8A8.009,8.009,0,0,1,64,56Z"/><path d="M288,328v-8a8,8,0,0,0-8-8H232a8,8,0,0,0-8,8v8a32,32,0,0,0,64,0Zm-48,0h32a16,16,0,0,1-32,0Z"/><path d="M192,256a8,8,0,0,0,8-8h16a8,8,0,0,0,0-16H192a8,8,0,0,0-8,8v8A8,8,0,0,0,192,256Z"/><path d="M68.8,321.6a72,72,0,0,1,0-115.2,8,8,0,1,0-9.6-12.8,88,88,0,0,0,0,140.8,8,8,0,0,0,9.6-12.8Z"/><path d="M89,297.755l-1.262-1.01a41.934,41.934,0,0,1,0-65.492L89,230.245a8,8,0,0,0-10-12.49l-1.256,1.006a57.933,57.933,0,0,0,0,90.476L79,310.245a8,8,0,1,0,10-12.49Z"/><path d="M109.657,253.657a8,8,0,0,0-11.314-11.314L96,244.686a27.314,27.314,0,0,0,0,38.628l2.343,2.343a8,8,0,1,0,11.314-11.314L107.314,272a11.313,11.313,0,0,1,0-16Z"/><path d="M452.8,193.6a8,8,0,1,0-9.6,12.8,72,72,0,0,1,0,115.2,8,8,0,1,0,9.6,12.8,88,88,0,0,0,0-140.8Z"/><path d="M434.259,218.763,433,217.755a8,8,0,0,0-10,12.49l1.262,1.01a41.934,41.934,0,0,1,0,65.492L423,297.755a8,8,0,0,0,10,12.49l1.256-1.006a57.933,57.933,0,0,0,0-90.476Z"/><path d="M416,244.686l-2.343-2.343a8,8,0,0,0-11.314,11.314L404.686,256a11.313,11.313,0,0,1,0,16l-2.343,2.343a8,8,0,0,0,11.314,11.314L416,283.314a27.314,27.314,0,0,0,0-38.628Z"/><rect x="232" y="232" width="16" height="16" rx="8"/></g></svg>
