<svg height="512" viewBox="0 0 64 64" width="512" xmlns="http://www.w3.org/2000/svg"><path d="m27 50h2v2h-2z"/><path d="m13 50h2v2h-2z"/><path d="m20 48h2a1 1 0 0 1 1 1h2a3 3 0 0 0 -3-3v-1h-2v1a3 3 0 0 0 0 6h2a1 1 0 0 1 0 2h-2a1 1 0 0 1 -1-1h-2a3 3 0 0 0 3 3v1h2v-1a3 3 0 0 0 0-6h-2a1 1 0 0 1 0-2z"/><path d="m49 19h2a1 1 0 0 1 1 1h2a3 3 0 0 0 -3-3v-1h-2v1a3 3 0 0 0 0 6h2a1 1 0 0 1 0 2h-2a1 1 0 0 1 -1-1h-2a3 3 0 0 0 3 3v1h2v-1a3 3 0 0 0 0-6h-2a1 1 0 0 1 0-2z"/><path d="m62 22a12.008 12.008 0 0 0 -7-10.895v-4.105a5.006 5.006 0 0 0 -5-5h-26a5.006 5.006 0 0 0 -5 5v23.25a2.145 2.145 0 0 0 -1-.25 3.786 3.786 0 0 0 -2 .632 1.924 1.924 0 0 1 -1 .368 1 1 0 0 0 -.937 1.351l2.118 5.649h-1.181v1.624a12 12 0 0 0 -6 10.376v5a7.008 7.008 0 0 0 7 7h34a5.006 5.006 0 0 0 5-5v-24.1a12.008 12.008 0 0 0 7-10.9zm-31-18h12v1a1 1 0 0 1 -1 1h-10a1 1 0 0 1 -1-1zm-14.665 28.713a6.715 6.715 0 0 0 .665-.345 1.924 1.924 0 0 1 1-.368c.171 0 .5.38.747.659a3.058 3.058 0 0 0 2.253 1.341 3.058 3.058 0 0 0 2.253-1.341c.247-.279.576-.659.747-.659a1.924 1.924 0 0 1 1 .368 6.715 6.715 0 0 0 .661.345l-1.978 5.287h-5.366zm-.335 27.287a5.006 5.006 0 0 1 -5-5v-5a10.011 10.011 0 0 1 6.21-9.249 4.008 4.008 0 0 0 -.21 1.249v1h2v-1a2 2 0 0 1 4 0v1h2v-1a4.008 4.008 0 0 0 -.21-1.249 10.011 10.011 0 0 1 6.21 9.249v5a5.006 5.006 0 0 1 -5 5zm37-3a3 3 0 0 1 -3 3h-19.111a6.973 6.973 0 0 0 2.111-5v-5a12 12 0 0 0 -6-10.376v-1.624h-1.181l2.118-5.649a1 1 0 0 0 -.937-1.351 1.924 1.924 0 0 1 -1-.368 3.786 3.786 0 0 0 -2-.632 3.058 3.058 0 0 0 -2.253 1.341c-.247.279-.576.659-.747.659v-25a3 3 0 0 1 3-3h5v1a3 3 0 0 0 3 3h10a3 3 0 0 0 3-3v-1h5a3 3 0 0 1 3 3v3.4a12 12 0 1 0 0 23.2zm-3-25a10 10 0 1 1 10-10 10.011 10.011 0 0 1 -10 10z"/><path d="m45.219 36.375-4 5a1 1 0 0 0 .781 1.625h1v7h2v-8a1 1 0 0 0 -.922-1l1.922-2.4 1.922 2.4a1 1 0 0 0 -.922 1v10h2v-9h1a1 1 0 0 0 .781-1.625l-4-5a1.036 1.036 0 0 0 -1.562 0z"/><path d="m36.781 28.375a1.036 1.036 0 0 0 -1.562 0l-4 5a1 1 0 0 0 .781 1.625h1v7h2v-8a1 1 0 0 0 -.922-1l1.922-2.4 1.922 2.4a1 1 0 0 0 -.922 1v10h2v-9h1a1 1 0 0 0 .781-1.625z"/><path d="m32.9 19.433a1 1 0 0 0 -.12-1.058l-4-5a1.036 1.036 0 0 0 -1.562 0l-4 5a1 1 0 0 0 .782 1.625h1v7h2v-8a1 1 0 0 0 -.922-1l1.922-2.4 1.922 2.4a1 1 0 0 0 -.922 1v10h2v-9h1a1 1 0 0 0 .9-.567z"/><path d="m37 46h2v2h-2z"/><path d="m37 50h2v2h-2z"/><path d="m47 54h2v2h-2z"/><path d="m43 52h2v2h-2z"/></svg>